<svg width="32" height="32" viewBox="0 0 32 32" fill="none" xmlns="http://www.w3.org/2000/svg">
  <g transform="translate(0.85 0)">
    <path d="M10.7133 6.64444C10.7133 6.87558 10.8051 7.09726 10.9686 7.26071C11.132 7.42415 11.3537 7.51598 11.5848 7.51598C11.816 7.51598 12.0377 7.42415 12.2011 7.26071C12.3646 7.09726 12.4564 6.87558 12.4564 6.64444C12.4564 6.41329 12.3646 6.19161 12.2011 6.02817C12.0377 5.86472 11.816 5.7729 11.5848 5.7729C11.3537 5.7729 11.132 5.86472 10.9686 6.02817C10.8051 6.19161 10.7133 6.41329 10.7133 6.64444ZM12.55 7.82165C12.55 8.05279 12.6418 8.27447 12.8053 8.43792C12.9687 8.60136 13.1904 8.69319 13.4215 8.69319C13.6527 8.69319 13.8743 8.60136 14.0378 8.43792C14.2012 8.27447 14.2931 8.05279 14.2931 7.82165C14.2931 7.5905 14.2012 7.36882 14.0378 7.20538C13.8743 7.04193 13.6527 6.95011 13.4215 6.95011C13.1904 6.95011 12.9687 7.04193 12.8053 7.20538C12.6418 7.36882 12.55 7.5905 12.55 7.82165ZM8.95639 17.0953C9.6554 17.3019 10.4127 17.2621 11.2281 16.9763C11.3243 15.521 11.0264 14.3761 10.4876 14.3006C9.89632 14.2175 9.22862 15.4514 8.95639 17.0953ZM24.2433 23.2312C24.8817 24.0676 25.3754 25.1967 25.6522 26.4972C26.5997 25.7224 27.7476 25.2689 28.9848 25.2689C29.4379 25.2689 29.8796 25.3298 30.3034 25.4452C27.9068 26.0967 26.0678 28.4861 25.7758 31.438H8.34307C8.13144 30.6108 8.02536 29.7601 8.02735 28.9063C8.02735 27.0812 8.49632 25.4142 9.26915 24.1437C8.76821 22.4162 8.48808 20.4842 8.48808 18.4459C8.48808 17.9954 8.50159 17.5498 8.52862 17.1105C5.05796 16.3185 2.42176 14.4057 1.68847 12.0549C1.43523 12.0235 1.19075 11.9421 0.969251 11.8154C0.747753 11.6887 0.553656 11.5192 0.398243 11.3168C0.242831 11.1144 0.129205 10.8831 0.0639715 10.6364C-0.0012622 10.3897 -0.016802 10.1325 0.0182556 9.87972C0.0533133 9.62695 0.138269 9.38368 0.268183 9.16404C0.398097 8.9444 0.570378 8.75278 0.775009 8.60032C0.97964 8.44785 1.21254 8.33759 1.46016 8.27594C1.70779 8.21428 1.9652 8.20247 2.21743 8.24119C3.76837 5.72363 7.60913 3.942 12.1018 3.942C13.4263 3.942 14.6938 4.09689 15.8628 4.37966C15.9959 2.192 16.5117 0.561966 17.1267 0.561966C17.8234 0.561966 18.3919 2.65174 18.4232 5.2741L18.5468 5.33342C19.5569 3.20772 20.7516 1.76389 21.3461 2.01634C21.9795 2.28527 21.701 4.38296 20.7338 6.7733C21.469 7.42716 22.0263 8.16835 22.3608 8.96755C23.8577 11.3823 24.7851 14.7373 24.7851 18.4462C24.7851 20.1326 24.5933 21.7461 24.2433 23.2312Z" fill="#4F46E5"/>
  </g>
</svg>
